name C:\Users\u0101727\Documents\MyRepositories\upper-imu-dc\Results\main_tracking\Case_18\kinematics.mot
datacolumns 10
datarows 47
range 4.83000000 5.29000000
endheader 
time	clav_prot	clav_elev	scapula_abduction	scapula_elevation	scapula_upward_rot	scapula_winging	plane_elv	shoulder_elv	axial_rot	
          4.83000000	        -25.04113677	         10.42927354	         -5.65310713	          1.59598118	         36.33489732	         -3.42589719	         71.30798109	         66.55336598	        -17.50294615	
          4.84000000	        -24.81439862	         10.29640455	         -5.81086378	          1.64439103	         35.57284354	         -3.20860485	         71.28359670	         66.23884702	        -17.48843016	
          4.85000000	        -24.59451031	         10.16097105	         -5.96952770	          1.69230473	         34.81864338	         -2.99179396	         71.23312447	         65.93215039	        -17.56946511	
          4.86000000	        -24.38168391	         10.02261121	         -6.12734777	          1.73887972	         34.07472370	         -2.77620900	         71.15540985	         65.63010479	        -17.74839802	
          4.87000000	        -24.17667629	          9.88208202	         -6.28279775	          1.78369885	         33.34515719	         -2.56314556	         71.05120927	         65.32765868	        -18.01237470	
          4.88000000	        -23.98042328	          9.74068530	         -6.43424584	          1.82648575	         32.63498269	         -2.35422819	         70.92266795	         65.01851209	        -18.33589080	
          4.89000000	        -23.79372135	          9.59955841	         -6.57988966	          1.86679778	         31.94918887	         -2.15109619	         70.77277637	         64.69619431	        -18.68621600	
          4.90000000	        -23.61705947	          9.45907058	         -6.71802177	          1.90381682	         31.29163814	         -1.95507557	         70.60498718	         64.35529189	        -19.03013032	
          4.91000000	        -23.45063057	          9.31857345	         -6.84751981	          1.93634689	         30.66428086	         -1.76693631	         70.42304708	         63.99241981	        -19.33972390	
          4.92000000	        -23.29445667	          9.17650150	         -6.96832231	          1.96297760	         30.06682936	         -1.58678042	         70.23092951	         63.60670027	        -19.59592301	
          4.93000000	        -23.14851788	          9.03065556	         -7.08162787	          1.98228712	         29.49689931	         -1.41406242	         70.03269365	         63.19969389	        -19.78942910	
          4.94000000	        -23.01283411	          8.87861670	         -7.18969723	          1.99303409	         28.95064376	         -1.24775658	         69.83221640	         62.77474948	        -19.91894345	
          4.95000000	        -22.88751979	          8.71823667	         -7.29535249	          1.99430947	         28.42378966	         -1.08665416	         69.63290771	         62.33589758	        -19.98746450	
          4.96000000	        -22.77281891	          8.54798480	         -7.40137099	          1.98555971	         27.91271438	         -0.92968535	         69.43756522	         61.88671441	        -19.99903370	
          4.97000000	        -22.66912608	          8.36708697	         -7.51001180	          1.96650867	         27.41522328	         -0.77616307	         69.24842942	         61.42956009	        -19.95798615	
          4.98000000	        -22.57686935	          8.17557904	         -7.62243393	          1.93706332	         26.93111139	         -0.62596742	         69.06735299	         60.96508115	        -19.86987198	
          4.99000000	        -22.49474953	          7.97352316	         -7.73482138	          1.89670659	         26.46268211	         -0.47968440	         68.89597373	         60.49158179	        -19.74178152	
          5.00000000	        -22.41261890	          7.75835933	         -7.82387300	          1.84277264	         26.01550847	         -0.33874389	         68.73585468	         60.00376703	        -19.57971520	
          5.01000000	        -22.30495515	          7.52601350	         -7.83724810	          1.77207356	         25.59633912	         -0.20491973	         68.58845770	         59.49491466	        -19.38334581	
          5.02000000	        -22.30387962	          7.29688840	         -8.02839009	          1.69347779	         25.19697515	         -0.07681178	         68.45449882	         58.97451845	        -19.14068800	
          5.03000000	        -22.33799911	          7.07585932	         -8.27448942	          1.61592966	         24.81226821	          0.04754843	         68.33120356	         58.44958105	        -18.83800411	
          5.04000000	        -22.28733450	          6.85155718	         -8.34947162	          1.53629981	         24.44998690	          0.16645537	         68.21473652	         57.91173130	        -18.46188925	
          5.05000000	        -22.33802993	          6.63898354	         -8.59567010	          1.45488915	         24.10853092	          0.27936516	         68.10074799	         57.36158105	        -18.00487098	
          5.06000000	        -22.32257936	          6.42557182	         -8.71024071	          1.37329020	         23.78352733	          0.38829107	         67.98304052	         56.80420623	        -17.48235501	
          5.07000000	        -22.31879703	          6.21389613	         -8.83504758	          1.28900927	         23.47372764	          0.49338172	         67.85803434	         56.24080917	        -16.92221700	
          5.08000000	        -22.30894027	          5.99922762	         -8.93812187	          1.20008511	         23.17679540	          0.59559738	         67.72440676	         55.67434499	        -16.36288565	
          5.09000000	        -22.29733016	          5.77875972	         -9.02875114	          1.10497153	         22.88914842	          0.69623867	         67.58385839	         55.10898623	        -15.84054842	
          5.10000000	        -22.27190320	          5.55148918	         -9.08606687	          1.00390601	         22.60947628	          0.79577710	         67.44015611	         54.54675534	        -15.38415048	
          5.11000000	        -22.29259914	          5.32127322	         -9.21816989	          0.89594400	         22.33873317	          0.89412546	         67.29773255	         53.98639355	        -15.00857289	
          5.12000000	        -22.30943616	          5.08776208	         -9.33817090	          0.78460245	         22.07337089	          0.99217554	         67.15890615	         53.43088946	        -14.71538742	
          5.13000000	        -22.26666620	          4.84968988	         -9.34817833	          0.67283553	         21.81080975	          1.09036595	         67.02377461	         52.88132884	        -14.49701288	
          5.14000000	        -22.30003099	          4.61622929	         -9.48915264	          0.55782275	         21.55772120	          1.18713126	         66.89187089	         52.32838316	        -14.33631907	
          5.15000000	        -22.31451185	          4.38223828	         -9.58999968	          0.44139445	         21.31384184	          1.28214653	         66.76119763	         51.76959771	        -14.21042424	
          5.16000000	        -22.37659416	          4.15387514	         -9.76806564	          0.32300931	         21.08401501	          1.37404334	         66.63093890	         51.19737027	        -14.09728984	
          5.17000000	        -22.39427691	          3.92642947	         -9.85571534	          0.20370129	         20.87184948	          1.46127641	         66.50165727	         50.60589618	        -13.98283985	
          5.18000000	        -22.41503540	          3.70791494	         -9.94280551	          0.08743853	         20.67394689	          1.54443135	         66.37361606	         49.99748719	        -13.86695456	
          5.19000000	        -22.44120186	          3.50037726	        -10.03342063	         -0.02470159	         20.49152798	          1.62282078	         66.24819799	         49.37048759	        -13.76562126	
          5.20000000	        -22.47133215	          3.30518059	        -10.12663725	         -0.13120993	         20.32289107	          1.69662405	         66.12531447	         48.72675004	        -13.70571770	
          5.21000000	        -22.51535888	          3.12390011	        -10.24196570	         -0.23099160	         20.16592895	          1.76619946	         66.00278837	         48.06868055	        -13.71361880	
          5.22000000	        -22.56726281	          2.95655346	        -10.37152260	         -0.32263227	         20.01637026	          1.83253750	         65.87599361	         47.40054289	        -13.80253891	
          5.23000000	        -22.62522475	          2.80370883	        -10.51455220	         -0.40473153	         19.87069026	          1.89637613	         65.73890109	         46.72542998	        -13.96428514	
          5.24000000	        -22.68698349	          2.66590543	        -10.66982984	         -0.47575477	         19.72486604	          1.95859763	         65.58527736	         46.04644642	        -14.16570196	
          5.25000000	        -22.74608692	          2.54314988	        -10.82770318	         -0.53462045	         19.57615241	          2.01978041	         65.41021965	         45.36529712	        -14.35449440	
          5.26000000	        -22.79991948	          2.43516691	        -10.98491244	         -0.58078754	         19.42223923	          2.08048675	         65.21075530	         44.68356900	        -14.47108380	
          5.27000000	        -22.84602593	          2.34049575	        -11.13781381	         -0.61469922	         19.26119087	          2.14138668	         64.98586743	         44.00320886	        -14.46316323	
          5.28000000	        -22.88505223	          2.25654608	        -11.28807744	         -0.63773066	         19.09067834	          2.20348440	         64.73571648	         43.32753020	        -14.29783721	
          5.29000000	        -22.91934884	          2.17967604	        -11.44050475	         -0.65194687	         18.90757573	          2.26820686	         64.46061336	         42.66163622	        -13.96740664	
